<?xml version="1.0" encoding="UTF-8"?><svg id="uuid-80265b84-bbae-42b6-a402-c3b9a278d2b2" xmlns="http://www.w3.org/2000/svg" xmlns:xlink="http://www.w3.org/1999/xlink" viewBox="0 0 257.73112 54.60167"><defs><style>.uuid-e5e7f572-482a-4814-b64a-593a60608b7c{fill:#183053;}.uuid-53dd59eb-52c0-4ed8-b8aa-bc4c103577e8{fill:#f7a42b;}.uuid-f37ea43f-8468-448f-806e-2379f8157e61{fill:url(#uuid-d8f76ce0-094b-4cb8-9bf0-ccbc49b636c7);}.uuid-8c334de9-9254-479a-99d5-fa5af05619d9{fill:#48a3cf;}.uuid-bab8b151-2547-4946-9946-7c394003aa9e{fill:#1d1d1b;}.uuid-62230236-6cd9-4d51-8a0a-84e35210119e{fill:#fff;}.uuid-5e32578c-40a6-4e35-a9d9-abf4563ffa41{fill:#586fb4;}.uuid-6001c5f9-6266-4f30-acef-33fd119daba8{fill:#ccced2;}.uuid-99462ec4-0b0b-4deb-8238-7935b89bc0bf{fill:url(#uuid-adbe872a-eb22-4bed-a705-378e04182e11);}.uuid-1c563fd9-2f3c-475f-9a46-23b84d2e979e{fill:#ef7d22;}.uuid-7d156a7b-ed2c-4ea7-b228-c9f7ce16f324{fill:#f39122;}</style><linearGradient id="uuid-adbe872a-eb22-4bed-a705-378e04182e11" x1="59.62402" y1="14.74091" x2="16.22678" y2="50.03358" gradientUnits="userSpaceOnUse"><stop offset="0" stop-color="#62b3d7"/><stop offset="1" stop-color="#0c80bd"/></linearGradient><linearGradient id="uuid-d8f76ce0-094b-4cb8-9bf0-ccbc49b636c7" x1="38.94882" y1="20.71502" x2="37.58649" y2="38.18123" gradientUnits="userSpaceOnUse"><stop offset="0" stop-color="#fcc946"/><stop offset="1" stop-color="#f28f25"/></linearGradient></defs><g id="uuid-d6dd165a-1697-4227-bb6b-396662c21d38"><path class="uuid-6001c5f9-6266-4f30-acef-33fd119daba8" d="M31.15326,48.46992c10.12075-.10742,19.87086.24215,29.90789.37541.43488.30008,2.61738,2.47677,2.0022,2.75303-1.42014.01637-2.83868-.18334-4.25468-.12514-9.26388.38076-19.46029.63831-28.90679.50055-8.91684-.13003-18.49218-.54622-26.65431-1.12624-.692-.04918-2.92794.46271-3.19101-.43798-.39655-1.35771,1.38957-.51501,2.31505-1.06367,9.77031-.16387,18.91405-.77123,28.78165-.87596Z"/><path class="uuid-6001c5f9-6266-4f30-acef-33fd119daba8" d="M71.32244,49.09561c.07718-.02565.04392.26224.12514.25028.29238-.04306.04533-.22655.50055-.25028.09119-.00475.03325.25219.12514.25028,1.16439-.02425,3.02972-.10691,4.12954,0,.55405.05386.70729.48872.75083.50055.05023.01365.52388-.4494.87596-.12514.0352.03242.20967.89601.18771.93853-.18303.3544-5.65107.34678-6.44459.56312-.10091-.86146-1.61549-1.67364-.25028-2.12734Z"/><path class="uuid-99462ec4-0b0b-4deb-8238-7935b89bc0bf" d="M37.285,2.79469c3.92837-.26698,8.32577,1.0195,11.38752,3.50385.7314.59347,3.03101,3.52973,3.25358,3.62899.41563.18537,1.89291.09251,2.50275.25028,5.54077,1.43342,10.16847,6.16183,9.44789,12.20092,6.28616,1.00862,10.57759,6.28625,9.13505,12.76404-.54022,2.42586-2.87752,5.31288-5.06807,6.44459-2.24237,1.15847-3.00468,1.2273-4.19211-1.18881.07409-.26034,4.10299-2.19469,4.56752-2.69046.27418-.29261.38541-.34751.31284-.81339l-19.77174-11.76294c-.26887-3.39902,1.4118-6.82772-3.62899-6.25688,1.10644-11.48148-15.1759-11.41921-13.89028.12514-1.30049-.09535-2.6339-.33671-3.50385.87596v18.01982c.39879.84393,1.09756,1.64764,2.06477,1.8145,1.94119.33487,14.79983.32622,16.76844,0,2.93046-.48561,1.89414-3.61983,2.37761-5.63119l2.62789,9.88587H12.88317c-11.96469-1.99567-11.96369-18.17627-.43798-21.08569-.04894-5.25083,5.27187-8.11072,9.94844-6.31945.98626-7.28503,7.54664-13.26597,14.89138-13.76514Z"/><path class="uuid-1c563fd9-2f3c-475f-9a46-23b84d2e979e" d="M22.08078,12.93084c-.13738.34546-.39365,2.1538-.68826,2.25248-4.43791-1.04088-7.95296.98285-9.69817,5.06807-.1675.3921-.27058,1.57658-.37541,1.75193-.1588.26563-1.9802.79223-2.44018,1.06367-9.79073,5.77765-7.55754,19.82421,3.50385,22.02422h39.79376l.43798,1.56422-39.60606.18771C.78028,45.56815-3.36732,29.84139,6.62629,22.56644c.55015-.40049,3.21757-1.65323,3.31615-1.8145.16741-.27387.49632-1.93212.87596-2.62789,1.70154-3.11839,5.80371-5.3166,9.32275-4.8178.11927-.03624.36354-.59564.43798-.75083l1.50165.37541Z"/><path class="uuid-53dd59eb-52c0-4ed8-b8aa-bc4c103577e8" d="M29.71418,4.04607c.01658-.01286-.03467-.19372.18771-.37541.16478-.13463,1.02505-.35709,1.06367-.56312.01031-.05501-.49591-.91323-.50055-1.0011-.00893-.16921.54087-.12022.25028-.43798,7.13852-3.11214,14.77641-1.78243,20.58514,3.25358.43214.37465,1.98079,2.31462,2.12734,2.37761.72252.31059,2.89653.45476,4.0044.87596,4.36498,1.65951,7.7821,5.80257,9.07248,10.19872.10956.37325.09673,1.68946.25028,1.87706.10563.12906,2.55723,1.0104,3.06587,1.31394,7.89665,4.7126,8.35132,16.37656.75083,21.64881-.44082.30579-3.01883,1.65456-3.37872,1.62679-.44623-.03444-.74481-.94244-1.06367-1.18881.00662-.2485,1.95202-.85845,2.31505-1.06367,9.47021-5.35361,7.09875-18.87162-3.31615-21.08569.16436-5.09242-3.76504-10.12759-8.44679-11.8255-1.31391-.47651-3.08102-.44-4.0044-.75083-.2182-.07345-2.50884-2.8674-3.12844-3.37872-5.47911-4.52161-13.72435-5.10094-19.83431-1.50165Z"/><path class="uuid-7d156a7b-ed2c-4ea7-b228-c9f7ce16f324" d="M29.71418,4.04607c-3.65299,2.8326-5.81666,4.31616-7.63339,8.88477l-1.50165-.37541c2.39929-5.00173,4.78752-8.55516,10.13615-10.88697.2906.31776-.25921.26877-.25028.43798.00464.08787.51086.9461.50055,1.0011-.03862.20603-.89889.42849-1.06367.56312-.22238.1817-.17112.36255-.18771.37541Z"/><path class="uuid-53dd59eb-52c0-4ed8-b8aa-bc4c103577e8" d="M57.80757,44.96607c.04585.00007.33685.3694.43798.43798l-1.56422.93853c-.07258-.2829,1.03731-1.37665,1.12624-1.37651Z"/><path class="uuid-8c334de9-9254-479a-99d5-fa5af05619d9" d="M32.84262,18.93745c-.27579-3.02177.4033-5.45707,3.12844-7.00771,4.73972-1.85993,8.63328,1.9768,7.88367,6.82l-11.01211.18771Z"/><path class="uuid-5e32578c-40a6-4e35-a9d9-abf4563ffa41" d="M35.97106,11.92974c-2.72515,1.55064-3.40423,3.98594-3.12844,7.00771-.54874-2.90703.18882-5.85416,3.12844-7.00771Z"/><path class="uuid-f37ea43f-8468-448f-806e-2379f8157e61" d="M28.90078,20.06368h18.77064c.83294.27263.27457,3.82591.43798,4.69266l-1.68936-.81339c-.51233.37681,1.72313,6.44701,1.8145,7.44569.06568.71795-.00661,5.71887-.12514,6.25688-.11639.52829-.83099,1.08639-1.31394,1.31394h-17.01872c-.53031-.2994-1.18575-.79796-1.31394-1.43908-.89639-4.48301.67389-12.08673,0-16.89358l.43798-.56312Z"/><polygon class="uuid-e5e7f572-482a-4814-b64a-593a60608b7c" points="47.17088 24.94405 67.75601 37.14497 62.75051 40.39855 71.25987 50.91011 66.56721 54.60167 57.93271 43.96497 53.61546 48.03194 47.17088 24.94405"/><path class="uuid-62230236-6cd9-4d51-8a0a-84e35210119e" d="M49.54849,27.94735l15.4545,9.19761c.07141.44444-4.42696,2.24777-4.37982,2.75303l8.57193,11.07468-2.50275,1.75193-8.6345-10.76184-3.69156,3.31615-4.8178-17.33156Z"/></g><path class="uuid-bab8b151-2547-4946-9946-7c394003aa9e" d="M100.19987,30.04029h17.04102c-1.53613,8.06543-8.59277,13.87305-16.80127,13.87305-9.45654,0-17.13721-7.67969-17.13721-17.08887,0-9.45654,7.68066-17.13721,17.13721-17.13721,4.56055,0,8.88135,1.82373,12.09717,5.04004l-2.35254,2.35254c-2.5918-2.54443-6.09619-4.03271-9.74463-4.03271-7.58447,0-13.729,6.19287-13.729,13.77734,0,7.58496,6.14453,13.72949,13.729,13.72949,5.23242,0,9.74463-2.92871,12.09717-7.24902h-12.33691v-3.26465Z"/><path class="uuid-bab8b151-2547-4946-9946-7c394003aa9e" d="M122.13444,4.21461c0-1.2002.95996-2.16016,2.1123-2.16016,1.2002,0,2.1123.95996,2.1123,2.16016,0,1.15186-.91211,2.1123-2.1123,2.1123-1.15234,0-2.1123-.96045-2.1123-2.1123ZM122.61491,43.24147V10.35914h3.26367v32.88232h-3.26367Z"/><path class="uuid-bab8b151-2547-4946-9946-7c394003aa9e" d="M149.83073,30.04029h17.04199c-1.53613,8.06543-8.59277,13.87305-16.80176,13.87305-9.45703,0-17.1377-7.67969-17.1377-17.08887,0-9.45654,7.68066-17.13721,17.1377-17.13721,4.56055,0,8.88086,1.82373,12.09668,5.04004l-2.35156,2.35254c-2.59277-2.54443-6.09668-4.03271-9.74512-4.03271-7.58496,0-13.72949,6.19287-13.72949,13.77734,0,7.58496,6.14453,13.72949,13.72949,13.72949,5.23242,0,9.74512-2.92871,12.09668-7.24902h-12.33691v-3.26465Z"/><path class="uuid-bab8b151-2547-4946-9946-7c394003aa9e" d="M167.54069,43.24147l13.00977-33.89062,13.00879,33.89062h-3.50391l-1.77637-4.75195h-15.45703l-1.77637,4.75195h-3.50488ZM173.8776,35.80201h13.34473l-6.67188-17.66602-6.67285,17.66602Z"/><path class="uuid-bab8b151-2547-4946-9946-7c394003aa9e" d="M196.05241,43.53053v-3.36133c.38379.19238.81543.24023,1.24805.24023,3.79199,0,6.52832-2.64062,6.52832-6.48047,0-2.64062-1.48828-4.46436-3.07227-6.38428-1.82422-2.2085-3.74414-4.5127-3.74414-8.30469,0-5.56885,4.17676-9.31299,9.40918-9.31299h.23926v3.16846h-.23926c-3.40918,0-6.19336,2.44824-6.19336,6.14453,0,2.44824,1.44043,4.27246,3.02441,6.19238,1.82422,2.25635,3.79297,4.70459,3.79297,8.49658,0,5.76074-3.98438,9.74512-9.74512,9.74512-.43262,0-.86426,0-1.24805-.14355Z"/><path class="uuid-bab8b151-2547-4946-9946-7c394003aa9e" d="M210.88444,32.72975c0-6.14502,4.99219-11.18555,11.18555-11.18555,6.19238,0,11.18457,4.99219,11.18457,11.18555,0,6.19141-4.99219,11.18359-11.18457,11.18359-6.19336,0-11.18555-4.99219-11.18555-11.18359ZM230.13444,32.72975c0-4.41699-3.64844-8.06543-8.06445-8.06543-4.41699,0-8.06543,3.64844-8.06543,8.06543,0,4.41602,3.64844,8.06445,8.06543,8.06445,4.41602,0,8.06445-3.64844,8.06445-8.06445Z"/><path class="uuid-bab8b151-2547-4946-9946-7c394003aa9e" d="M238.81999,43.24147v-17.85693h-3.16797v-3.16846h3.16797v-5.9043c0-3.64844,2.35254-6.19287,5.80859-6.19287.28809,0,.71973.04834,1.10352.24023v3.07227c-.28809-.09619-.57617-.09619-.76758-.09619-1.68066,0-2.97656,1.2002-2.97656,2.97656v5.9043h3.74414v3.16846h-3.74414v17.85693h-3.16797Z"/><path class="uuid-bab8b151-2547-4946-9946-7c394003aa9e" d="M250.10026,43.24147v-17.90527h-3.16895v-3.12012h3.16895v-7.05664l3.16797-1.58398v8.64062h3.74414v3.12012h-3.74414v17.90527h-3.16797Z"/></svg>